<svg xmlns="http://www.w3.org/2000/svg" width="800" height="1200" viewBox="0 0 800 1200">
  <defs>
    <linearGradient id="bg4" x1="0%" y1="0%" x2="100%" y2="100%">
      <stop offset="0%" stop-color="hsl(242,35%,8%)"/>
      <stop offset="100%" stop-color="hsl(242,45%,3%)"/>
    </linearGradient>
    <radialGradient id="glow4" cx="50%" cy="30%" r="60%">
      <stop offset="0%" stop-color="#c9a24b" stop-opacity="0.18"/>
      <stop offset="100%" stop-color="#c9a24b" stop-opacity="0"/>
    </radialGradient>
    <linearGradient id="vig4" x1="0%" y1="100%" x2="0%" y2="0%">
      <stop offset="0%" stop-color="#000000" stop-opacity="0.65"/>
      <stop offset="35%" stop-color="#000000" stop-opacity="0"/>
    </linearGradient>
  </defs>
  <rect width="800" height="1200" fill="url(#bg4)"/>
  <rect width="800" height="1200" fill="url(#glow4)"/>
  <g opacity="0.5" stroke="#c9a24b" stroke-width="1">
    <line x1="40" y1="40" x2="120" y2="40"/>
    <line x1="40" y1="40" x2="40" y2="120"/>
    <line x1="760" y1="40" x2="680" y2="40"/>
    <line x1="760" y1="40" x2="760" y2="120"/>
    <line x1="40" y1="1160" x2="120" y2="1160"/>
    <line x1="40" y1="1160" x2="40" y2="1080"/>
    <line x1="760" y1="1160" x2="680" y2="1160"/>
    <line x1="760" y1="1160" x2="760" y2="1080"/>
  </g>
  <text x="50%" y="46%" text-anchor="middle" font-family="Georgia, serif" font-size="120" fill="#c9a24b" opacity="0.28">04</text>
  <text x="50%" y="56%" text-anchor="middle" font-family="Georgia, serif" font-size="30" letter-spacing="6" fill="#e8cd8a" opacity="0.85">POSTER PLACEHOLDER</text>
  <text x="50%" y="60%" text-anchor="middle" font-family="Helvetica, Arial, sans-serif" font-size="16" letter-spacing="3" fill="#8a8f9c">REPLACE IN /public/posters</text>
  <rect width="800" height="1200" fill="url(#vig4)"/>
  <rect x="0.5" y="0.5" width="799" height="1199" fill="none" stroke="#c9a24b" stroke-opacity="0.35" stroke-width="1"/>
</svg>